<?xml version="1.0" encoding="UTF-8"?><svg id="Ebene_1" xmlns="http://www.w3.org/2000/svg" viewBox="0 0 70 70"><defs><style>.cls-1{stroke-width:0px;}</style></defs><rect class="cls-1" width="2.41" height="4.83"/><rect class="cls-1" y="4.83" width="2.41" height="4.83"/><rect class="cls-1" y="9.65" width="2.41" height="7.24"/><rect class="cls-1" y="19.31" width="2.41" height="4.83"/><rect class="cls-1" y="28.97" width="2.41" height="2.41"/><rect class="cls-1" y="36.21" width="2.41" height="2.41"/><rect class="cls-1" y="41.03" width="2.41" height="9.65"/><rect class="cls-1" y="53.1" width="2.41" height="16.9"/><rect class="cls-1" x="2.41" width="2.41" height="2.41"/><rect class="cls-1" x="2.41" y="14.48" width="2.41" height="2.41"/><rect class="cls-1" x="2.41" y="24.14" width="2.41" height="7.24"/><rect class="cls-1" x="2.41" y="36.21" width="2.41" height="14.48"/><rect class="cls-1" x="2.41" y="53.1" width="2.41" height="2.41"/><rect class="cls-1" x="2.41" y="67.59" width="2.41" height="2.41"/><rect class="cls-1" x="4.83" width="2.41" height="2.41"/><rect class="cls-1" x="4.83" y="4.83" width="2.41" height="4.83"/><rect class="cls-1" x="4.83" y="9.65" width="2.41" height="2.41"/><rect class="cls-1" x="4.83" y="14.48" width="2.41" height="2.41"/><rect class="cls-1" x="4.83" y="21.72" width="2.41" height="2.41"/><rect class="cls-1" x="4.83" y="28.97" width="2.41" height="2.41"/><rect class="cls-1" x="4.83" y="33.79" width="2.41" height="4.83"/><rect class="cls-1" x="4.83" y="43.45" width="2.41" height="2.41"/><rect class="cls-1" x="4.83" y="48.28" width="2.41" height="2.41"/><rect class="cls-1" x="4.83" y="53.1" width="2.41" height="2.41"/><rect class="cls-1" x="4.83" y="57.93" width="2.41" height="7.24"/><rect class="cls-1" x="4.83" y="67.59" width="2.41" height="2.41"/><rect class="cls-1" x="7.24" width="2.41" height="2.41"/><rect class="cls-1" x="7.24" y="4.83" width="2.41" height="4.83"/><rect class="cls-1" x="7.24" y="9.65" width="2.41" height="2.41"/><rect class="cls-1" x="7.24" y="14.48" width="2.41" height="2.41"/><rect class="cls-1" x="7.24" y="19.31" width="2.41" height="4.83"/><rect class="cls-1" x="7.24" y="28.97" width="2.41" height="4.83"/><rect class="cls-1" x="7.24" y="38.62" width="2.41" height="2.41"/><rect class="cls-1" x="7.24" y="45.86" width="2.41" height="4.83"/><rect class="cls-1" x="7.24" y="53.1" width="2.41" height="2.41"/><rect class="cls-1" x="7.24" y="57.93" width="2.41" height="7.24"/><rect class="cls-1" x="7.24" y="67.59" width="2.41" height="2.41"/><rect class="cls-1" x="9.65" width="2.41" height="2.41"/><rect class="cls-1" x="9.65" y="4.83" width="2.41" height="4.83"/><rect class="cls-1" x="9.65" y="9.65" width="2.41" height="2.41"/><rect class="cls-1" x="9.65" y="14.48" width="2.41" height="2.41"/><rect class="cls-1" x="9.65" y="19.31" width="2.41" height="7.24"/><rect class="cls-1" x="9.65" y="28.97" width="2.41" height="4.83"/><rect class="cls-1" x="9.65" y="36.21" width="2.41" height="7.24"/><rect class="cls-1" x="9.65" y="45.86" width="2.41" height="2.41"/><rect class="cls-1" x="9.65" y="53.1" width="2.41" height="2.41"/><rect class="cls-1" x="9.65" y="57.93" width="2.41" height="7.24"/><rect class="cls-1" x="9.65" y="67.59" width="2.41" height="2.41"/><rect class="cls-1" x="12.07" width="2.41" height="2.41"/><rect class="cls-1" x="12.07" y="14.48" width="2.41" height="2.41"/><rect class="cls-1" x="12.07" y="19.31" width="2.41" height="2.41"/><rect class="cls-1" x="12.07" y="41.03" width="2.41" height="9.65"/><rect class="cls-1" x="12.07" y="53.1" width="2.41" height="2.41"/><rect class="cls-1" x="12.07" y="67.59" width="2.41" height="2.41"/><rect class="cls-1" x="14.48" width="2.41" height="4.83"/><rect class="cls-1" x="14.48" y="4.83" width="2.41" height="4.83"/><rect class="cls-1" x="14.48" y="9.65" width="2.41" height="7.24"/><rect class="cls-1" x="14.48" y="19.31" width="2.41" height="2.41"/><rect class="cls-1" x="14.48" y="24.14" width="2.41" height="2.41"/><rect class="cls-1" x="14.48" y="28.97" width="2.41" height="2.41"/><rect class="cls-1" x="14.48" y="33.79" width="2.41" height="2.41"/><rect class="cls-1" x="14.48" y="38.62" width="2.41" height="2.41"/><rect class="cls-1" x="14.48" y="43.45" width="2.41" height="2.41"/><rect class="cls-1" x="14.48" y="48.28" width="2.41" height="2.41"/><rect class="cls-1" x="14.48" y="53.1" width="2.41" height="16.9"/><rect class="cls-1" x="16.9" y="19.31" width="2.41" height="2.41"/><rect class="cls-1" x="16.9" y="24.14" width="2.41" height="2.41"/><rect class="cls-1" x="16.9" y="33.79" width="2.41" height="2.41"/><rect class="cls-1" x="16.9" y="38.62" width="2.41" height="4.83"/><rect class="cls-1" x="16.9" y="45.86" width="2.41" height="2.41"/><rect class="cls-1" x="19.31" width="2.41" height="4.83"/><rect class="cls-1" x="19.31" y="4.83" width="2.41" height="2.41"/><rect class="cls-1" x="19.31" y="9.65" width="2.41" height="2.41"/><rect class="cls-1" x="19.31" y="14.48" width="2.41" height="2.41"/><rect class="cls-1" x="19.31" y="19.31" width="2.41" height="7.24"/><rect class="cls-1" x="19.31" y="36.21" width="2.41" height="2.41"/><rect class="cls-1" x="19.31" y="41.03" width="2.41" height="7.24"/><rect class="cls-1" x="19.31" y="50.69" width="2.41" height="12.07"/><rect class="cls-1" x="19.31" y="67.59" width="2.41" height="2.41"/><rect class="cls-1" x="21.72" width="2.41" height="2.41"/><rect class="cls-1" x="21.72" y="4.83" width="2.41" height="4.83"/><rect class="cls-1" x="21.72" y="12.07" width="2.41" height="2.41"/><rect class="cls-1" x="21.72" y="16.9" width="2.41" height="4.83"/><rect class="cls-1" x="21.72" y="28.97" width="2.41" height="7.24"/><rect class="cls-1" x="21.72" y="48.28" width="2.41" height="2.41"/><rect class="cls-1" x="21.72" y="60.35" width="2.41" height="2.41"/><rect class="cls-1" x="24.14" y="4.83" width="2.41" height="2.41"/><rect class="cls-1" x="24.14" y="14.48" width="2.41" height="7.24"/><rect class="cls-1" x="24.14" y="24.14" width="2.41" height="2.41"/><rect class="cls-1" x="24.14" y="28.97" width="2.41" height="4.83"/><rect class="cls-1" x="24.14" y="41.03" width="2.41" height="2.41"/><rect class="cls-1" x="24.14" y="57.93" width="2.41" height="4.83"/><rect class="cls-1" x="24.14" y="67.59" width="2.41" height="2.41"/><rect class="cls-1" x="26.55" y="2.41" width="2.41" height="2.41"/><rect class="cls-1" x="26.55" y="7.24" width="2.41" height="2.41"/><rect class="cls-1" x="26.55" y="28.97" width="2.41" height="4.83"/><rect class="cls-1" x="26.55" y="43.45" width="2.41" height="2.41"/><rect class="cls-1" x="26.55" y="48.28" width="2.41" height="2.41"/><rect class="cls-1" x="26.55" y="53.1" width="2.41" height="4.83"/><rect class="cls-1" x="26.55" y="62.76" width="2.41" height="7.24"/><rect class="cls-1" x="28.97" y="4.83" width="2.41" height="2.41"/><rect class="cls-1" x="28.97" y="14.48" width="2.41" height="2.41"/><rect class="cls-1" x="28.97" y="19.31" width="2.41" height="4.83"/><rect class="cls-1" x="28.97" y="31.38" width="2.41" height="2.41"/><rect class="cls-1" x="28.97" y="36.21" width="2.41" height="4.83"/><rect class="cls-1" x="28.97" y="45.86" width="2.41" height="2.41"/><rect class="cls-1" x="28.97" y="53.1" width="2.41" height="4.83"/><rect class="cls-1" x="28.97" y="60.35" width="2.41" height="2.41"/><rect class="cls-1" x="31.38" y="16.9" width="2.41" height="19.31"/><rect class="cls-1" x="31.38" y="41.03" width="2.41" height="2.41"/><rect class="cls-1" x="31.38" y="48.28" width="2.41" height="2.41"/><rect class="cls-1" x="31.38" y="57.93" width="2.41" height="12.07"/><rect class="cls-1" x="33.79" y="9.65" width="2.41" height="2.41"/><rect class="cls-1" x="33.79" y="14.48" width="2.41" height="2.41"/><rect class="cls-1" x="33.79" y="31.38" width="2.41" height="2.41"/><rect class="cls-1" x="33.79" y="38.62" width="2.41" height="4.83"/><rect class="cls-1" x="33.79" y="45.86" width="2.41" height="14.48"/><rect class="cls-1" x="33.79" y="65.17" width="2.41" height="2.41"/><rect class="cls-1" x="36.21" width="2.41" height="2.41"/><rect class="cls-1" x="36.21" y="4.83" width="2.41" height="2.41"/><rect class="cls-1" x="36.21" y="9.65" width="2.41" height="4.83"/><rect class="cls-1" x="36.21" y="16.9" width="2.41" height="2.41"/><rect class="cls-1" x="36.21" y="24.14" width="2.41" height="2.41"/><rect class="cls-1" x="36.21" y="28.97" width="2.41" height="2.41"/><rect class="cls-1" x="36.21" y="36.21" width="2.41" height="2.41"/><rect class="cls-1" x="36.21" y="43.45" width="2.41" height="2.41"/><rect class="cls-1" x="36.21" y="48.28" width="2.41" height="2.41"/><rect class="cls-1" x="36.21" y="55.52" width="2.41" height="2.41"/><rect class="cls-1" x="36.21" y="62.76" width="2.41" height="2.41"/><rect class="cls-1" x="36.21" y="67.59" width="2.41" height="2.41"/><rect class="cls-1" x="38.62" width="2.41" height="4.83"/><rect class="cls-1" x="38.62" y="4.83" width="2.41" height="4.83"/><rect class="cls-1" x="38.62" y="9.65" width="2.41" height="9.65"/><rect class="cls-1" x="38.62" y="21.72" width="2.41" height="14.48"/><rect class="cls-1" x="38.62" y="38.62" width="2.41" height="4.83"/><rect class="cls-1" x="38.62" y="48.28" width="2.41" height="2.41"/><rect class="cls-1" x="38.62" y="65.17" width="2.41" height="2.41"/><rect class="cls-1" x="41.03" width="2.41" height="2.41"/><rect class="cls-1" x="41.03" y="7.24" width="2.41" height="2.41"/><rect class="cls-1" x="41.03" y="9.65" width="2.41" height="4.83"/><rect class="cls-1" x="41.03" y="19.31" width="2.41" height="2.41"/><rect class="cls-1" x="41.03" y="26.55" width="2.41" height="2.41"/><rect class="cls-1" x="41.03" y="31.38" width="2.41" height="2.41"/><rect class="cls-1" x="41.03" y="41.03" width="2.41" height="4.83"/><rect class="cls-1" x="41.03" y="50.69" width="2.41" height="19.31"/><rect class="cls-1" x="43.45" y="4.83" width="2.41" height="2.41"/><rect class="cls-1" x="43.45" y="9.65" width="2.41" height="7.24"/><rect class="cls-1" x="43.45" y="21.72" width="2.41" height="7.24"/><rect class="cls-1" x="43.45" y="31.38" width="2.41" height="2.41"/><rect class="cls-1" x="43.45" y="36.21" width="2.41" height="2.41"/><rect class="cls-1" x="43.45" y="41.03" width="2.41" height="2.41"/><rect class="cls-1" x="43.45" y="48.28" width="2.41" height="4.83"/><rect class="cls-1" x="43.45" y="57.93" width="2.41" height="4.83"/><rect class="cls-1" x="43.45" y="65.17" width="2.41" height="2.41"/><rect class="cls-1" x="45.86" y="2.41" width="2.41" height="2.41"/><rect class="cls-1" x="45.86" y="4.83" width="2.41" height="2.41"/><rect class="cls-1" x="45.86" y="9.65" width="2.41" height="2.41"/><rect class="cls-1" x="45.86" y="16.9" width="2.41" height="2.41"/><rect class="cls-1" x="45.86" y="21.72" width="2.41" height="2.41"/><rect class="cls-1" x="45.86" y="33.79" width="2.41" height="2.41"/><rect class="cls-1" x="45.86" y="41.03" width="2.41" height="4.83"/><rect class="cls-1" x="45.86" y="53.1" width="2.41" height="2.41"/><rect class="cls-1" x="45.86" y="57.93" width="2.41" height="2.41"/><rect class="cls-1" x="45.86" y="67.59" width="2.41" height="2.41"/><rect class="cls-1" x="48.28" y="4.83" width="2.41" height="4.83"/><rect class="cls-1" x="48.28" y="12.07" width="2.41" height="4.83"/><rect class="cls-1" x="48.28" y="28.97" width="2.41" height="2.41"/><rect class="cls-1" x="48.28" y="41.03" width="2.41" height="2.41"/><rect class="cls-1" x="48.28" y="48.28" width="2.41" height="14.48"/><rect class="cls-1" x="48.28" y="67.59" width="2.41" height="2.41"/><rect class="cls-1" x="50.69" y="19.31" width="2.41" height="2.41"/><rect class="cls-1" x="50.69" y="24.14" width="2.41" height="4.83"/><rect class="cls-1" x="50.69" y="31.38" width="2.41" height="4.83"/><rect class="cls-1" x="50.69" y="38.62" width="2.41" height="2.41"/><rect class="cls-1" x="50.69" y="48.28" width="2.41" height="2.41"/><rect class="cls-1" x="50.69" y="57.93" width="2.41" height="12.07"/><rect class="cls-1" x="53.1" width="2.41" height="4.83"/><rect class="cls-1" x="53.1" y="4.83" width="2.41" height="4.83"/><rect class="cls-1" x="53.1" y="9.65" width="2.41" height="7.24"/><rect class="cls-1" x="53.1" y="26.55" width="2.41" height="9.65"/><rect class="cls-1" x="53.1" y="45.86" width="2.41" height="4.83"/><rect class="cls-1" x="53.1" y="53.1" width="2.41" height="2.41"/><rect class="cls-1" x="53.1" y="57.93" width="2.41" height="2.41"/><rect class="cls-1" x="53.1" y="65.17" width="2.41" height="2.41"/><rect class="cls-1" x="55.52" width="2.41" height="2.41"/><rect class="cls-1" x="55.52" y="14.48" width="2.41" height="2.41"/><rect class="cls-1" x="55.52" y="21.72" width="2.41" height="2.41"/><rect class="cls-1" x="55.52" y="28.97" width="2.41" height="7.24"/><rect class="cls-1" x="55.52" y="38.62" width="2.41" height="2.41"/><rect class="cls-1" x="55.52" y="45.86" width="2.41" height="4.83"/><rect class="cls-1" x="55.52" y="57.93" width="2.41" height="2.41"/><rect class="cls-1" x="55.52" y="62.76" width="2.41" height="4.83"/><rect class="cls-1" x="57.93" width="2.41" height="2.41"/><rect class="cls-1" x="57.93" y="4.83" width="2.41" height="4.83"/><rect class="cls-1" x="57.93" y="9.65" width="2.41" height="2.41"/><rect class="cls-1" x="57.93" y="14.48" width="2.41" height="2.41"/><rect class="cls-1" x="57.93" y="19.31" width="2.41" height="7.24"/><rect class="cls-1" x="57.93" y="31.38" width="2.41" height="4.83"/><rect class="cls-1" x="57.93" y="41.03" width="2.41" height="19.31"/><rect class="cls-1" x="57.93" y="62.76" width="2.41" height="2.41"/><rect class="cls-1" x="57.93" y="67.59" width="2.41" height="2.41"/><rect class="cls-1" x="60.35" width="2.41" height="2.41"/><rect class="cls-1" x="60.35" y="4.83" width="2.41" height="4.83"/><rect class="cls-1" x="60.35" y="9.65" width="2.41" height="2.41"/><rect class="cls-1" x="60.35" y="14.48" width="2.41" height="2.41"/><rect class="cls-1" x="60.35" y="21.72" width="2.41" height="2.41"/><rect class="cls-1" x="60.35" y="26.55" width="2.41" height="2.41"/><rect class="cls-1" x="60.35" y="36.21" width="2.41" height="2.41"/><rect class="cls-1" x="60.35" y="41.03" width="2.41" height="4.83"/><rect class="cls-1" x="60.35" y="48.28" width="2.41" height="2.41"/><rect class="cls-1" x="60.35" y="53.1" width="2.41" height="2.41"/><rect class="cls-1" x="60.35" y="57.93" width="2.41" height="2.41"/><rect class="cls-1" x="60.35" y="65.17" width="2.41" height="4.83"/><rect class="cls-1" x="62.76" width="2.41" height="2.41"/><rect class="cls-1" x="62.76" y="4.83" width="2.41" height="4.83"/><rect class="cls-1" x="62.76" y="9.65" width="2.41" height="2.41"/><rect class="cls-1" x="62.76" y="14.48" width="2.41" height="2.41"/><rect class="cls-1" x="62.76" y="19.31" width="2.41" height="2.41"/><rect class="cls-1" x="62.76" y="31.38" width="2.41" height="2.41"/><rect class="cls-1" x="62.76" y="36.21" width="2.41" height="2.41"/><rect class="cls-1" x="62.76" y="41.03" width="2.41" height="2.41"/><rect class="cls-1" x="62.76" y="45.86" width="2.41" height="4.83"/><rect class="cls-1" x="62.76" y="53.1" width="2.41" height="2.41"/><rect class="cls-1" x="62.76" y="65.17" width="2.41" height="2.41"/><rect class="cls-1" x="65.17" width="2.41" height="2.41"/><rect class="cls-1" x="65.17" y="14.48" width="2.41" height="2.41"/><rect class="cls-1" x="65.17" y="19.31" width="2.41" height="2.41"/><rect class="cls-1" x="65.17" y="24.14" width="2.41" height="4.83"/><rect class="cls-1" x="65.17" y="31.38" width="2.41" height="2.41"/><rect class="cls-1" x="65.17" y="36.21" width="2.41" height="2.41"/><rect class="cls-1" x="65.17" y="41.03" width="2.41" height="2.41"/><rect class="cls-1" x="65.17" y="45.86" width="2.41" height="2.41"/><rect class="cls-1" x="65.17" y="50.69" width="2.41" height="2.41"/><rect class="cls-1" x="65.17" y="60.35" width="2.41" height="4.83"/><rect class="cls-1" x="67.59" width="2.41" height="4.83"/><rect class="cls-1" x="67.59" y="4.83" width="2.41" height="4.83"/><rect class="cls-1" x="67.59" y="9.65" width="2.41" height="7.24"/><rect class="cls-1" x="67.59" y="19.31" width="2.41" height="2.41"/><rect class="cls-1" x="67.59" y="28.97" width="2.41" height="7.24"/><rect class="cls-1" x="67.59" y="43.45" width="2.41" height="7.24"/><rect class="cls-1" x="67.59" y="55.52" width="2.41" height="2.41"/><rect class="cls-1" x="67.59" y="62.76" width="2.41" height="4.83"/></svg>